<?xml version="1.0" standalone="no"?>
<!DOCTYPE svg PUBLIC "-//W3C//DTD SVG 20010904//EN"
 "http://www.w3.org/TR/2001/REC-SVG-20010904/DTD/svg10.dtd">
<svg version="1.0" xmlns="http://www.w3.org/2000/svg"
 width="512.000000pt" height="512.000000pt" viewBox="0 0 512.000000 512.000000"
 preserveAspectRatio="xMidYMid meet">
<metadata>
Created by potrace 1.14, written by Peter Selinger 2001-2017
</metadata>
<g transform="translate(0.000000,512.000000) scale(0.100000,-0.100000)"
fill="#000000" stroke="none">
<path d="M2320 5099 c-599 -57 -1145 -314 -1570 -739 -210 -210 -363 -424
-490 -685 -85 -175 -132 -303 -175 -470 -140 -548 -106 -1079 102 -1605 119
-302 324 -611 563 -850 400 -399 913 -652 1471 -725 165 -22 193 -20 218 11
26 33 27 65 3 94 -14 18 -36 24 -137 36 -314 38 -553 108 -820 241 -946 471
-1478 1516 -1299 2553 140 811 687 1496 1449 1815 363 152 772 212 1165 170
1125 -119 2020 -1008 2141 -2125 14 -129 30 -160 83 -160 19 0 41 9 54 20 28
26 28 62 2 244 -81 550 -328 1043 -720 1436 -421 423 -979 684 -1580 739 -130
12 -333 12 -460 0z"/>
<path d="M2365 4354 c-167 -35 -348 -155 -451 -299 -101 -143 -133 -253 -141
-490 -5 -156 -8 -173 -30 -211 -50 -88 -37 -211 32 -291 35 -41 123 -93 157
-93 12 0 20 -13 28 -42 30 -116 73 -193 162 -284 l49 -51 -3 -68 -3 -69 -352
-136 c-193 -75 -377 -152 -408 -171 -73 -44 -157 -134 -195 -210 -58 -113 -60
-135 -60 -579 0 -453 0 -454 71 -492 32 -17 87 -18 1111 -18 l1078 0 0 -40 c0
-22 9 -80 20 -128 24 -111 50 -176 112 -278 l18 -32 -112 -45 c-202 -80 -412
-134 -618 -157 -58 -6 -116 -17 -130 -23 -32 -16 -47 -58 -32 -92 21 -46 49
-51 200 -32 244 31 480 94 695 187 l97 42 38 -34 c175 -158 440 -240 671 -208
349 48 614 276 718 617 23 77 26 105 26 228 1 239 -50 372 -224 586 l-21 27
55 138 c91 224 156 497 173 719 6 75 5 84 -15 104 -13 13 -34 21 -55 21 -55 0
-71 -30 -86 -162 -13 -121 -48 -300 -82 -413 -28 -95 -110 -306 -117 -303 -3
2 -44 22 -91 46 -124 62 -205 83 -346 89 -130 6 -239 -9 -335 -47 -27 -11 -52
-20 -54 -20 -3 0 -5 30 -5 68 0 138 -50 253 -154 358 -39 39 -91 82 -116 95
-25 13 -202 85 -395 160 l-350 136 -3 73 -3 73 44 46 c82 85 128 166 156 276
10 37 15 42 55 52 61 17 124 69 159 132 42 74 44 161 6 241 -25 50 -27 69 -33
220 -3 91 -10 185 -16 210 -69 290 -297 514 -588 575 -85 18 -217 18 -307 -1z
m523 -803 l62 -70 0 -249 c0 -224 -2 -255 -20 -308 -77 -225 -309 -338 -546
-266 -115 35 -222 142 -263 264 -19 55 -21 85 -21 283 l0 222 118 6 c177 9
362 61 517 146 39 21 75 39 80 40 6 0 38 -30 73 -68z m-953 -419 c-10 -10 -63
49 -68 75 -7 39 10 85 40 110 l28 23 3 -101 c1 -56 0 -104 -3 -107z m1224 175
c21 -26 31 -76 20 -105 -11 -29 -47 -72 -61 -72 -4 0 -8 47 -8 105 0 99 1 105
18 96 10 -5 24 -16 31 -24z m-401 -924 c6 -12 23 -30 37 -41 l25 -20 -41 -37
c-82 -74 -209 -113 -309 -95 -69 13 -166 60 -204 99 l-29 31 27 21 c37 29 56
71 56 125 l0 47 33 -7 c131 -28 229 -29 335 -2 l47 12 5 -55 c3 -31 11 -66 18
-78z m-463 -294 c208 -103 428 -65 613 107 l72 66 287 -112 c159 -61 305 -123
327 -138 52 -35 100 -96 133 -168 24 -51 28 -74 31 -174 l4 -115 -65 -57
c-102 -90 -194 -226 -243 -358 -11 -30 -13 -2 -13 212 -1 135 -4 254 -7 263
-10 26 -59 46 -87 36 -56 -21 -57 -30 -57 -353 l0 -298 -760 0 -760 0 0 303
c-1 323 -1 327 -51 346 -30 11 -83 -8 -93 -34 -3 -9 -6 -151 -6 -316 l0 -299
-160 0 -160 0 0 368 c0 390 3 420 51 513 24 49 102 125 153 151 22 12 160 67
305 124 l265 102 69 -64 c45 -41 100 -79 152 -105z m2177 -562 c115 -37 203
-91 288 -177 85 -86 130 -157 166 -259 81 -234 33 -499 -123 -683 -139 -162
-326 -249 -537 -249 -117 -1 -209 21 -316 73 -69 34 -102 60 -176 133 -127
127 -183 239 -205 416 -45 352 194 681 556 765 90 21 251 12 347 -19z"/>
<path d="M4099 1325 c-48 -26 -59 -56 -59 -155 l0 -90 -94 0 c-151 0 -171 -29
-164 -246 2 -91 8 -136 18 -152 24 -37 71 -52 159 -52 l81 0 0 -86 c0 -146 23
-166 195 -172 136 -5 190 6 226 44 21 23 24 36 27 119 l4 93 94 4 c90 3 95 4
126 36 33 32 33 33 37 147 4 156 -3 202 -41 237 -29 27 -35 28 -124 28 l-94 0
0 85 c0 98 -14 136 -60 160 -40 21 -293 21 -331 0z m241 -220 c0 -142 33 -175
175 -175 l75 0 0 -75 0 -75 -91 0 c-90 0 -91 0 -125 -34 -34 -34 -34 -35 -34
-125 l0 -91 -74 0 -74 0 -4 96 c-3 94 -4 96 -36 125 -31 27 -37 29 -122 29
l-90 0 0 75 0 75 75 0 c142 0 175 33 175 175 l0 85 75 0 75 0 0 -85z"/>
</g>
</svg>
